<svg id="Camada_1" data-name="Camada 1" xmlns="http://www.w3.org/2000/svg" xmlns:xlink="http://www.w3.org/1999/xlink" viewBox="0 0 198.18 235.73"><defs><linearGradient id="Gradiente_sem_nome_28" x1="67.27" y1="92.45" x2="250.68" y2="92.45" gradientUnits="userSpaceOnUse"><stop offset="0" stop-color="#00aeff"/><stop offset="1" stop-color="#06c8af"/></linearGradient><linearGradient id="Gradiente_sem_nome_28-2" x1="57.88" y1="188.57" x2="148.61" y2="188.57" xlink:href="#Gradiente_sem_nome_28"/><linearGradient id="Gradiente_sem_nome_28-3" x1="164.18" y1="189.15" x2="256.06" y2="189.15" xlink:href="#Gradiente_sem_nome_28"/></defs><title>somente simbolo oficial especial</title><path d="M158.16,151.52,68.26,92.4a2.21,2.21,0,0,1-.06-3.64L138,39.53a33.58,33.58,0,0,1,38.16-.39l73.53,49.63a2.2,2.2,0,0,1,0,3.67Z" transform="translate(-57.88 -33.39)" fill="url(#Gradiente_sem_nome_28)"/><path d="M145.23,268.77,76.47,225.34a39.9,39.9,0,0,1-18.59-33.73V110.24a2.2,2.2,0,0,1,3.41-1.84l87.32,57.45V266.91A2.2,2.2,0,0,1,145.23,268.77Z" transform="translate(-57.88 -33.39)" fill="url(#Gradiente_sem_nome_28-2)"/><path d="M238.77,224.37l-71.23,44.41a2.2,2.2,0,0,1-3.36-1.9l1.14-101,87.34-56.31a2.2,2.2,0,0,1,3.4,1.85v81.85A36.69,36.69,0,0,1,238.77,224.37Z" transform="translate(-57.88 -33.39)" fill="url(#Gradiente_sem_nome_28-3)"/></svg>